# xmcd
#
# Track frame offsets: 
#        150
#        21521
#        37632
#        51716
#
# Disc length: 831 seconds
#
# Revision: 0
# Processed by: cddbd v1.5.2PL0 Copyright (c) Steve Scherf et al.
# Submitted via: ExactAudioCopy v0.95b4
#
DISCID=2f033d04
DTITLE=Adrian Baker - Everyone Needs Someone At Xmas
DYEAR=2003
DGENRE=Christmas/Holiday
TTITLE0=Everyone Needs Someone At Xmas
TTITLE1=White Xmas
TTITLE2=Blue Xmas
TTITLE3=Silent Night
EXTD=
EXTT0=
EXTT1=
EXTT2=
EXTT3=
PLAYORDER=
